<?xml version="1.0" standalone="no"?>
<!DOCTYPE svg PUBLIC "-//W3C//DTD SVG 20010904//EN"
 "http://www.w3.org/TR/2001/REC-SVG-20010904/DTD/svg10.dtd">
<svg version="1.0" xmlns="http://www.w3.org/2000/svg"
 width="246.000000pt" height="246.000000pt" viewBox="0 0 246.000000 246.000000"
 preserveAspectRatio="xMidYMid meet">
<metadata>
Created by potrace 1.14, written by Peter Selinger 2001-2017
</metadata>
<g transform="translate(0.000000,246.000000) scale(0.100000,-0.100000)"
fill="#000000" stroke="none">
<path d="M1175 2346 c-38 -19 -119 -57 -180 -85 -60 -28 -126 -60 -145 -71
-19 -10 -37 -18 -40 -18 -5 0 -63 -26 -200 -89 -41 -20 -93 -43 -115 -53 -35
-15 -87 -39 -350 -159 -33 -16 -79 -36 -103 -46 l-42 -19 2 -588 3 -588 135
-64 c145 -68 232 -109 486 -230 89 -42 164 -76 166 -76 2 0 4 48 4 106 l0 106
-70 33 c-39 18 -100 47 -136 63 -36 17 -131 62 -213 101 l-147 70 0 474 0 473
88 42 c48 22 125 59 172 80 124 58 219 102 364 171 70 34 130 61 131 61 2 0
61 27 132 61 104 49 133 59 153 52 l25 -8 2 -155 c1 -85 2 -171 2 -190 l2 -35
139 -64 140 -65 0 -55 c0 -31 0 -269 0 -529 l0 -473 97 50 c54 28 106 56 116
63 17 12 18 41 18 421 1 224 3 407 6 407 2 0 63 -27 135 -60 72 -34 133 -58
136 -55 4 3 6 50 7 105 l0 99 -50 22 c-27 12 -115 54 -195 92 -80 37 -184 87
-232 109 l-88 41 0 186 0 187 -136 64 c-75 36 -139 66 -142 67 -4 1 -38 -13
-77 -31z"/>
<path d="M1659 2168 c-4 -54 1 -192 8 -197 4 -4 62 -32 128 -63 66 -31 179
-84 250 -118 72 -34 140 -66 153 -71 12 -5 22 -12 23 -16 0 -5 2 -219 3 -478
2 -400 0 -473 -12 -487 -9 -10 -19 -18 -23 -18 -5 0 -57 -23 -116 -51 -60 -28
-135 -64 -168 -79 -33 -15 -100 -47 -150 -70 -49 -23 -117 -55 -150 -70 -33
-15 -100 -47 -150 -70 -49 -23 -114 -53 -144 -67 l-55 -25 -50 24 -51 25 -2
819 c-1 451 -2 822 -2 826 -1 3 -52 -19 -113 -50 l-113 -57 -18 -55 c-10 -30
-42 -132 -72 -226 -29 -94 -56 -178 -61 -187 -7 -12 -27 25 -78 146 -38 89
-72 166 -76 170 -4 5 -47 -8 -96 -28 -49 -20 -93 -38 -99 -39 -5 -2 -22 -8
-36 -15 l-26 -13 0 -407 0 -408 113 -50 c69 -31 114 -46 116 -39 2 6 3 134 3
284 -1 149 0 272 2 272 1 0 11 -17 21 -37 39 -79 125 -238 132 -246 4 -5 40
51 78 125 39 73 77 141 84 151 11 14 13 -74 12 -512 l-2 -529 150 -71 c82 -39
160 -74 172 -77 14 -3 47 6 87 24 119 55 466 217 599 279 41 20 107 50 145 68
39 18 111 52 160 75 50 24 118 55 153 71 34 15 62 32 63 36 3 25 4 1151 1
1166 -3 9 -8 17 -12 17 -5 0 -80 34 -167 76 -87 42 -219 104 -293 139 -74 34
-173 81 -219 104 -92 45 -100 47 -102 29z"/>
</g>
</svg>
